  0
SECTION
  2
HEADER
  9
$ACADVER
  1
AC1009
  9
$FILLMODE
 70
 0
  9
$SPLFRAME
 70
 1
  9
$EXTMIN
 10
0
 20
0
 30
0.0
  9
$EXTMAX
 10
1058.33
 20
1058.33
 30
0.0
  0
ENDSEC
  0
SECTION
  2
TABLES
  0
TABLE
  2
LAYER
 70
1
  0
LAYER
  2
0
 70
     0
 62
     7
  6
CONTINUOUS
  0
ENDTAB
  0
ENDSEC
  0
SECTION
  2
ENTITIES
  0
LINE
  8
0
 62
     0
 10
0.0950846
 20
86.3353
 30
0.0
 11
295.845
 21
86.3353
 31
0.0
  0
LINE
  8
0
 62
     0
 10
295.845
 20
86.3353
 30
0.0
 11
295.845
 21
0.135048
 31
0.0
  0
LINE
  8
0
 62
     0
 10
295.845
 20
0.135048
 30
0.0
 11
0.0950846
 21
0.135048
 31
0.0
  0
LINE
  8
0
 62
     0
 10
0.0950846
 20
0.135048
 30
0.0
 11
0.0950846
 21
86.3353
 31
0.0
  0
LINE
  8
0
 62
     0
 10
119.538
 20
21.6614
 30
0.0
 11
119.538
 21
16.9609
 31
0.0
  0
LINE
  8
0
 62
     0
 10
119.538
 20
16.9609
 30
0.0
 11
79.9123
 21
16.9609
 31
0.0
  0
LINE
  8
0
 62
     0
 10
79.9123
 20
16.9609
 30
0.0
 11
79.9123
 21
20.191
 31
0.0
  0
LINE
  8
0
 62
     0
 10
79.9123
 20
20.191
 30
0.0
 11
73.1629
 21
20.191
 31
0.0
  0
LINE
  8
0
 62
     0
 10
73.1629
 20
20.191
 30
0.0
 11
73.1629
 21
16.9609
 31
0.0
  0
LINE
  8
0
 62
     0
 10
73.1629
 20
16.9609
 30
0.0
 11
72.3374
 21
16.9609
 31
0.0
  0
LINE
  8
0
 62
     0
 10
72.3374
 20
16.9609
 30
0.0
 11
72.3374
 21
14.1607
 31
0.0
  0
LINE
  8
0
 62
     0
 10
72.3374
 20
14.1607
 30
0.0
 11
73.1629
 21
14.1607
 31
0.0
  0
LINE
  8
0
 62
     0
 10
73.1629
 20
14.1607
 30
0.0
 11
73.1629
 21
7.89065
 31
0.0
  0
LINE
  8
0
 62
     0
 10
73.1629
 20
7.89065
 30
0.0
 11
74.888
 21
7.89065
 31
0.0
  0
LINE
  8
0
 62
     0
 10
74.888
 20
7.89065
 30
0.0
 11
74.888
 21
6.69177
 31
0.0
  0
LINE
  8
0
 62
     0
 10
74.888
 20
6.69177
 30
0.0
 11
78.1872
 21
6.69177
 31
0.0
  0
LINE
  8
0
 62
     0
 10
78.1872
 20
6.69177
 30
0.0
 11
78.1872
 21
7.89065
 31
0.0
  0
LINE
  8
0
 62
     0
 10
78.1872
 20
7.89065
 30
0.0
 11
79.9123
 21
7.89065
 31
0.0
  0
LINE
  8
0
 62
     0
 10
79.9123
 20
7.89065
 30
0.0
 11
79.9123
 21
12.361
 31
0.0
  0
LINE
  8
0
 62
     0
 10
79.9123
 20
12.361
 30
0.0
 11
119.538
 21
12.361
 31
0.0
  0
LINE
  8
0
 62
     0
 10
119.538
 20
12.361
 30
0.0
 11
119.538
 21
7.6605
 31
0.0
  0
LINE
  8
0
 62
     0
 10
119.538
 20
7.6605
 30
0.0
 11
133.537
 21
7.6605
 31
0.0
  0
LINE
  8
0
 62
     0
 10
133.537
 20
7.6605
 30
0.0
 11
133.537
 21
12.361
 31
0.0
  0
LINE
  8
0
 62
     0
 10
133.537
 20
12.361
 30
0.0
 11
173.163
 21
12.361
 31
0.0
  0
LINE
  8
0
 62
     0
 10
173.163
 20
12.361
 30
0.0
 11
173.163
 21
7.89065
 31
0.0
  0
LINE
  8
0
 62
     0
 10
173.163
 20
7.89065
 30
0.0
 11
174.887
 21
7.89065
 31
0.0
  0
LINE
  8
0
 62
     0
 10
174.887
 20
7.89065
 30
0.0
 11
174.887
 21
6.69177
 31
0.0
  0
LINE
  8
0
 62
     0
 10
174.887
 20
6.69177
 30
0.0
 11
178.187
 21
6.69177
 31
0.0
  0
LINE
  8
0
 62
     0
 10
178.187
 20
6.69177
 30
0.0
 11
178.187
 21
7.89065
 31
0.0
  0
LINE
  8
0
 62
     0
 10
178.187
 20
7.89065
 30
0.0
 11
179.912
 21
7.89065
 31
0.0
  0
LINE
  8
0
 62
     0
 10
179.912
 20
7.89065
 30
0.0
 11
179.912
 21
14.1607
 31
0.0
  0
LINE
  8
0
 62
     0
 10
179.912
 20
14.1607
 30
0.0
 11
180.738
 21
14.1607
 31
0.0
  0
LINE
  8
0
 62
     0
 10
180.738
 20
14.1607
 30
0.0
 11
180.738
 21
16.9609
 31
0.0
  0
LINE
  8
0
 62
     0
 10
180.738
 20
16.9609
 30
0.0
 11
179.912
 21
16.9609
 31
0.0
  0
LINE
  8
0
 62
     0
 10
179.912
 20
16.9609
 30
0.0
 11
179.912
 21
20.191
 31
0.0
  0
LINE
  8
0
 62
     0
 10
179.912
 20
20.191
 30
0.0
 11
173.163
 21
20.191
 31
0.0
  0
LINE
  8
0
 62
     0
 10
173.163
 20
20.191
 30
0.0
 11
173.163
 21
16.9609
 31
0.0
  0
LINE
  8
0
 62
     0
 10
173.163
 20
16.9609
 30
0.0
 11
133.537
 21
16.9609
 31
0.0
  0
LINE
  8
0
 62
     0
 10
133.537
 20
16.9609
 30
0.0
 11
133.537
 21
21.6614
 31
0.0
  0
LINE
  8
0
 62
     0
 10
133.537
 20
21.6614
 30
0.0
 11
119.538
 21
21.6614
 31
0.0
  0
LINE
  8
0
 62
     0
 10
31.4317
 20
21.6614
 30
0.0
 11
45.4311
 21
21.6614
 31
0.0
  0
LINE
  8
0
 62
     0
 10
45.4311
 20
21.6614
 30
0.0
 11
45.4311
 21
7.6605
 31
0.0
  0
LINE
  8
0
 62
     0
 10
45.4311
 20
7.6605
 30
0.0
 11
31.4317
 21
7.6605
 31
0.0
  0
LINE
  8
0
 62
     0
 10
31.4317
 20
7.6605
 30
0.0
 11
31.4317
 21
21.6614
 31
0.0
  0
LINE
  8
0
 62
     0
 10
50.4818
 20
21.6614
 30
0.0
 11
64.4811
 21
21.6614
 31
0.0
  0
LINE
  8
0
 62
     0
 10
64.4811
 20
21.6614
 30
0.0
 11
64.4811
 21
7.6605
 31
0.0
  0
LINE
  8
0
 62
     0
 10
64.4811
 20
7.6605
 30
0.0
 11
50.4818
 21
7.6605
 31
0.0
  0
LINE
  8
0
 62
     0
 10
50.4818
 20
7.6605
 30
0.0
 11
50.4818
 21
21.6614
 31
0.0
  0
LINE
  8
0
 62
     0
 10
190.976
 20
21.6614
 30
0.0
 11
204.975
 21
21.6614
 31
0.0
  0
LINE
  8
0
 62
     0
 10
204.975
 20
21.6614
 30
0.0
 11
204.975
 21
7.6605
 31
0.0
  0
LINE
  8
0
 62
     0
 10
204.975
 20
7.6605
 30
0.0
 11
190.976
 21
7.6605
 31
0.0
  0
LINE
  8
0
 62
     0
 10
190.976
 20
7.6605
 30
0.0
 11
190.976
 21
21.6614
 31
0.0
  0
LINE
  8
0
 62
     0
 10
212.407
 20
21.6614
 30
0.0
 11
226.406
 21
21.6614
 31
0.0
  0
LINE
  8
0
 62
     0
 10
226.406
 20
21.6614
 30
0.0
 11
226.406
 21
7.6605
 31
0.0
  0
LINE
  8
0
 62
     0
 10
226.406
 20
7.6605
 30
0.0
 11
212.407
 21
7.6605
 31
0.0
  0
LINE
  8
0
 62
     0
 10
212.407
 20
7.6605
 30
0.0
 11
212.407
 21
21.6614
 31
0.0
  0
LINE
  8
0
 62
     0
 10
231.457
 20
21.6614
 30
0.0
 11
245.456
 21
21.6614
 31
0.0
  0
LINE
  8
0
 62
     0
 10
245.456
 20
21.6614
 30
0.0
 11
245.456
 21
7.6605
 31
0.0
  0
LINE
  8
0
 62
     0
 10
245.456
 20
7.6605
 30
0.0
 11
231.457
 21
7.6605
 31
0.0
  0
LINE
  8
0
 62
     0
 10
231.457
 20
7.6605
 30
0.0
 11
231.457
 21
21.6614
 31
0.0
  0
LINE
  8
0
 62
     0
 10
250.507
 20
21.6614
 30
0.0
 11
264.506
 21
21.6614
 31
0.0
  0
LINE
  8
0
 62
     0
 10
264.506
 20
21.6614
 30
0.0
 11
264.506
 21
7.6605
 31
0.0
  0
LINE
  8
0
 62
     0
 10
264.506
 20
7.6605
 30
0.0
 11
250.507
 21
7.6605
 31
0.0
  0
LINE
  8
0
 62
     0
 10
250.507
 20
7.6605
 30
0.0
 11
250.507
 21
21.6614
 31
0.0
  0
LINE
  8
0
 62
     0
 10
14.7629
 20
40.7113
 30
0.0
 11
28.7624
 21
40.7113
 31
0.0
  0
LINE
  8
0
 62
     0
 10
28.7624
 20
40.7113
 30
0.0
 11
28.7624
 21
26.7105
 31
0.0
  0
LINE
  8
0
 62
     0
 10
28.7624
 20
26.7105
 30
0.0
 11
14.7629
 21
26.7105
 31
0.0
  0
LINE
  8
0
 62
     0
 10
14.7629
 20
26.7105
 30
0.0
 11
14.7629
 21
40.7113
 31
0.0
  0
LINE
  8
0
 62
     0
 10
40.9568
 20
40.7113
 30
0.0
 11
54.9561
 21
40.7113
 31
0.0
  0
LINE
  8
0
 62
     0
 10
54.9561
 20
40.7113
 30
0.0
 11
54.9561
 21
26.7105
 31
0.0
  0
LINE
  8
0
 62
     0
 10
54.9561
 20
26.7105
 30
0.0
 11
40.9568
 21
26.7105
 31
0.0
  0
LINE
  8
0
 62
     0
 10
40.9568
 20
26.7105
 30
0.0
 11
40.9568
 21
40.7113
 31
0.0
  0
LINE
  8
0
 62
     0
 10
60.0068
 20
40.7113
 30
0.0
 11
74.0061
 21
40.7113
 31
0.0
  0
LINE
  8
0
 62
     0
 10
74.0061
 20
40.7113
 30
0.0
 11
74.0061
 21
26.7105
 31
0.0
  0
LINE
  8
0
 62
     0
 10
74.0061
 20
26.7105
 30
0.0
 11
60.0068
 21
26.7105
 31
0.0
  0
LINE
  8
0
 62
     0
 10
60.0068
 20
26.7105
 30
0.0
 11
60.0068
 21
40.7113
 31
0.0
  0
LINE
  8
0
 62
     0
 10
79.0568
 20
40.7113
 30
0.0
 11
93.0561
 21
40.7113
 31
0.0
  0
LINE
  8
0
 62
     0
 10
93.0561
 20
40.7113
 30
0.0
 11
93.0561
 21
26.7105
 31
0.0
  0
LINE
  8
0
 62
     0
 10
93.0561
 20
26.7105
 30
0.0
 11
79.0568
 21
26.7105
 31
0.0
  0
LINE
  8
0
 62
     0
 10
79.0568
 20
26.7105
 30
0.0
 11
79.0568
 21
40.7113
 31
0.0
  0
LINE
  8
0
 62
     0
 10
98.1068
 20
40.7113
 30
0.0
 11
112.106
 21
40.7113
 31
0.0
  0
LINE
  8
0
 62
     0
 10
112.106
 20
40.7113
 30
0.0
 11
112.106
 21
26.7105
 31
0.0
  0
LINE
  8
0
 62
     0
 10
112.106
 20
26.7105
 30
0.0
 11
98.1068
 21
26.7105
 31
0.0
  0
LINE
  8
0
 62
     0
 10
98.1068
 20
26.7105
 30
0.0
 11
98.1068
 21
40.7113
 31
0.0
  0
LINE
  8
0
 62
     0
 10
117.157
 20
40.7113
 30
0.0
 11
131.156
 21
40.7113
 31
0.0
  0
LINE
  8
0
 62
     0
 10
131.156
 20
40.7113
 30
0.0
 11
131.156
 21
26.7105
 31
0.0
  0
LINE
  8
0
 62
     0
 10
131.156
 20
26.7105
 30
0.0
 11
117.157
 21
26.7105
 31
0.0
  0
LINE
  8
0
 62
     0
 10
117.157
 20
26.7105
 30
0.0
 11
117.157
 21
40.7113
 31
0.0
  0
LINE
  8
0
 62
     0
 10
136.207
 20
40.7113
 30
0.0
 11
150.206
 21
40.7113
 31
0.0
  0
LINE
  8
0
 62
     0
 10
150.206
 20
40.7113
 30
0.0
 11
150.206
 21
26.7105
 31
0.0
  0
LINE
  8
0
 62
     0
 10
150.206
 20
26.7105
 30
0.0
 11
136.207
 21
26.7105
 31
0.0
  0
LINE
  8
0
 62
     0
 10
136.207
 20
26.7105
 30
0.0
 11
136.207
 21
40.7113
 31
0.0
  0
LINE
  8
0
 62
     0
 10
155.257
 20
40.7113
 30
0.0
 11
169.256
 21
40.7113
 31
0.0
  0
LINE
  8
0
 62
     0
 10
169.256
 20
40.7113
 30
0.0
 11
169.256
 21
26.7105
 31
0.0
  0
LINE
  8
0
 62
     0
 10
169.256
 20
26.7105
 30
0.0
 11
155.257
 21
26.7105
 31
0.0
  0
LINE
  8
0
 62
     0
 10
155.257
 20
26.7105
 30
0.0
 11
155.257
 21
40.7113
 31
0.0
  0
LINE
  8
0
 62
     0
 10
174.307
 20
40.7113
 30
0.0
 11
188.306
 21
40.7113
 31
0.0
  0
LINE
  8
0
 62
     0
 10
188.306
 20
40.7113
 30
0.0
 11
188.306
 21
26.7105
 31
0.0
  0
LINE
  8
0
 62
     0
 10
188.306
 20
26.7105
 30
0.0
 11
174.307
 21
26.7105
 31
0.0
  0
LINE
  8
0
 62
     0
 10
174.307
 20
26.7105
 30
0.0
 11
174.307
 21
40.7113
 31
0.0
  0
LINE
  8
0
 62
     0
 10
193.357
 20
40.7113
 30
0.0
 11
207.356
 21
40.7113
 31
0.0
  0
LINE
  8
0
 62
     0
 10
207.356
 20
40.7113
 30
0.0
 11
207.356
 21
26.7105
 31
0.0
  0
LINE
  8
0
 62
     0
 10
207.356
 20
26.7105
 30
0.0
 11
193.357
 21
26.7105
 31
0.0
  0
LINE
  8
0
 62
     0
 10
193.357
 20
26.7105
 30
0.0
 11
193.357
 21
40.7113
 31
0.0
  0
LINE
  8
0
 62
     0
 10
212.407
 20
40.7113
 30
0.0
 11
226.406
 21
40.7113
 31
0.0
  0
LINE
  8
0
 62
     0
 10
226.406
 20
40.7113
 30
0.0
 11
226.406
 21
26.7105
 31
0.0
  0
LINE
  8
0
 62
     0
 10
226.406
 20
26.7105
 30
0.0
 11
212.407
 21
26.7105
 31
0.0
  0
LINE
  8
0
 62
     0
 10
212.407
 20
26.7105
 30
0.0
 11
212.407
 21
40.7113
 31
0.0
  0
LINE
  8
0
 62
     0
 10
231.457
 20
40.7113
 30
0.0
 11
245.456
 21
40.7113
 31
0.0
  0
LINE
  8
0
 62
     0
 10
245.456
 20
40.7113
 30
0.0
 11
245.456
 21
26.7105
 31
0.0
  0
LINE
  8
0
 62
     0
 10
245.456
 20
26.7105
 30
0.0
 11
231.457
 21
26.7105
 31
0.0
  0
LINE
  8
0
 62
     0
 10
231.457
 20
26.7105
 30
0.0
 11
231.457
 21
40.7113
 31
0.0
  0
LINE
  8
0
 62
     0
 10
250.507
 20
40.7113
 30
0.0
 11
264.506
 21
40.7113
 31
0.0
  0
LINE
  8
0
 62
     0
 10
264.506
 20
40.7113
 30
0.0
 11
264.506
 21
26.7105
 31
0.0
  0
LINE
  8
0
 62
     0
 10
264.506
 20
26.7105
 30
0.0
 11
250.507
 21
26.7105
 31
0.0
  0
LINE
  8
0
 62
     0
 10
250.507
 20
26.7105
 30
0.0
 11
250.507
 21
40.7113
 31
0.0
  0
LINE
  8
0
 62
     0
 10
271.938
 20
40.7113
 30
0.0
 11
285.937
 21
40.7113
 31
0.0
  0
LINE
  8
0
 62
     0
 10
285.937
 20
40.7113
 30
0.0
 11
285.937
 21
26.7105
 31
0.0
  0
LINE
  8
0
 62
     0
 10
285.937
 20
26.7105
 30
0.0
 11
271.938
 21
26.7105
 31
0.0
  0
LINE
  8
0
 62
     0
 10
271.938
 20
26.7105
 30
0.0
 11
271.938
 21
40.7113
 31
0.0
  0
LINE
  8
0
 62
     0
 10
10.0004
 20
59.7613
 30
0.0
 11
23.9999
 21
59.7613
 31
0.0
  0
LINE
  8
0
 62
     0
 10
23.9999
 20
59.7613
 30
0.0
 11
23.9999
 21
45.7606
 31
0.0
  0
LINE
  8
0
 62
     0
 10
23.9999
 20
45.7606
 30
0.0
 11
10.0004
 21
45.7606
 31
0.0
  0
LINE
  8
0
 62
     0
 10
10.0004
 20
45.7606
 30
0.0
 11
10.0004
 21
59.7613
 31
0.0
  0
LINE
  8
0
 62
     0
 10
31.4317
 20
59.7613
 30
0.0
 11
45.4311
 21
59.7613
 31
0.0
  0
LINE
  8
0
 62
     0
 10
45.4311
 20
59.7613
 30
0.0
 11
45.4311
 21
45.7606
 31
0.0
  0
LINE
  8
0
 62
     0
 10
45.4311
 20
45.7606
 30
0.0
 11
31.4317
 21
45.7606
 31
0.0
  0
LINE
  8
0
 62
     0
 10
31.4317
 20
45.7606
 30
0.0
 11
31.4317
 21
59.7613
 31
0.0
  0
LINE
  8
0
 62
     0
 10
50.4818
 20
59.7613
 30
0.0
 11
64.4811
 21
59.7613
 31
0.0
  0
LINE
  8
0
 62
     0
 10
64.4811
 20
59.7613
 30
0.0
 11
64.4811
 21
45.7606
 31
0.0
  0
LINE
  8
0
 62
     0
 10
64.4811
 20
45.7606
 30
0.0
 11
50.4818
 21
45.7606
 31
0.0
  0
LINE
  8
0
 62
     0
 10
50.4818
 20
45.7606
 30
0.0
 11
50.4818
 21
59.7613
 31
0.0
  0
LINE
  8
0
 62
     0
 10
69.5318
 20
59.7613
 30
0.0
 11
83.5311
 21
59.7613
 31
0.0
  0
LINE
  8
0
 62
     0
 10
83.5311
 20
59.7613
 30
0.0
 11
83.5311
 21
45.7606
 31
0.0
  0
LINE
  8
0
 62
     0
 10
83.5311
 20
45.7606
 30
0.0
 11
69.5318
 21
45.7606
 31
0.0
  0
LINE
  8
0
 62
     0
 10
69.5318
 20
45.7606
 30
0.0
 11
69.5318
 21
59.7613
 31
0.0
  0
LINE
  8
0
 62
     0
 10
88.5818
 20
59.7613
 30
0.0
 11
102.581
 21
59.7613
 31
0.0
  0
LINE
  8
0
 62
     0
 10
102.581
 20
59.7613
 30
0.0
 11
102.581
 21
45.7606
 31
0.0
  0
LINE
  8
0
 62
     0
 10
102.581
 20
45.7606
 30
0.0
 11
88.5818
 21
45.7606
 31
0.0
  0
LINE
  8
0
 62
     0
 10
88.5818
 20
45.7606
 30
0.0
 11
88.5818
 21
59.7613
 31
0.0
  0
LINE
  8
0
 62
     0
 10
107.632
 20
59.7613
 30
0.0
 11
121.631
 21
59.7613
 31
0.0
  0
LINE
  8
0
 62
     0
 10
121.631
 20
59.7613
 30
0.0
 11
121.631
 21
45.7606
 31
0.0
  0
LINE
  8
0
 62
     0
 10
121.631
 20
45.7606
 30
0.0
 11
107.632
 21
45.7606
 31
0.0
  0
LINE
  8
0
 62
     0
 10
107.632
 20
45.7606
 30
0.0
 11
107.632
 21
59.7613
 31
0.0
  0
LINE
  8
0
 62
     0
 10
126.682
 20
59.7613
 30
0.0
 11
140.681
 21
59.7613
 31
0.0
  0
LINE
  8
0
 62
     0
 10
140.681
 20
59.7613
 30
0.0
 11
140.681
 21
45.7606
 31
0.0
  0
LINE
  8
0
 62
     0
 10
140.681
 20
45.7606
 30
0.0
 11
126.682
 21
45.7606
 31
0.0
  0
LINE
  8
0
 62
     0
 10
126.682
 20
45.7606
 30
0.0
 11
126.682
 21
59.7613
 31
0.0
  0
LINE
  8
0
 62
     0
 10
145.732
 20
59.7613
 30
0.0
 11
159.731
 21
59.7613
 31
0.0
  0
LINE
  8
0
 62
     0
 10
159.731
 20
59.7613
 30
0.0
 11
159.731
 21
45.7606
 31
0.0
  0
LINE
  8
0
 62
     0
 10
159.731
 20
45.7606
 30
0.0
 11
145.732
 21
45.7606
 31
0.0
  0
LINE
  8
0
 62
     0
 10
145.732
 20
45.7606
 30
0.0
 11
145.732
 21
59.7613
 31
0.0
  0
LINE
  8
0
 62
     0
 10
164.782
 20
59.7613
 30
0.0
 11
178.781
 21
59.7613
 31
0.0
  0
LINE
  8
0
 62
     0
 10
178.781
 20
59.7613
 30
0.0
 11
178.781
 21
45.7606
 31
0.0
  0
LINE
  8
0
 62
     0
 10
178.781
 20
45.7606
 30
0.0
 11
164.782
 21
45.7606
 31
0.0
  0
LINE
  8
0
 62
     0
 10
164.782
 20
45.7606
 30
0.0
 11
164.782
 21
59.7613
 31
0.0
  0
LINE
  8
0
 62
     0
 10
183.832
 20
59.7613
 30
0.0
 11
197.831
 21
59.7613
 31
0.0
  0
LINE
  8
0
 62
     0
 10
197.831
 20
59.7613
 30
0.0
 11
197.831
 21
45.7606
 31
0.0
  0
LINE
  8
0
 62
     0
 10
197.831
 20
45.7606
 30
0.0
 11
183.832
 21
45.7606
 31
0.0
  0
LINE
  8
0
 62
     0
 10
183.832
 20
45.7606
 30
0.0
 11
183.832
 21
59.7613
 31
0.0
  0
LINE
  8
0
 62
     0
 10
202.882
 20
59.7613
 30
0.0
 11
216.881
 21
59.7613
 31
0.0
  0
LINE
  8
0
 62
     0
 10
216.881
 20
59.7613
 30
0.0
 11
216.881
 21
45.7606
 31
0.0
  0
LINE
  8
0
 62
     0
 10
216.881
 20
45.7606
 30
0.0
 11
202.882
 21
45.7606
 31
0.0
  0
LINE
  8
0
 62
     0
 10
202.882
 20
45.7606
 30
0.0
 11
202.882
 21
59.7613
 31
0.0
  0
LINE
  8
0
 62
     0
 10
221.932
 20
59.7613
 30
0.0
 11
235.931
 21
59.7613
 31
0.0
  0
LINE
  8
0
 62
     0
 10
235.931
 20
59.7613
 30
0.0
 11
235.931
 21
45.7606
 31
0.0
  0
LINE
  8
0
 62
     0
 10
235.931
 20
45.7606
 30
0.0
 11
221.932
 21
45.7606
 31
0.0
  0
LINE
  8
0
 62
     0
 10
221.932
 20
45.7606
 30
0.0
 11
221.932
 21
59.7613
 31
0.0
  0
LINE
  8
0
 62
     0
 10
240.982
 20
59.7613
 30
0.0
 11
254.981
 21
59.7613
 31
0.0
  0
LINE
  8
0
 62
     0
 10
254.981
 20
59.7613
 30
0.0
 11
254.981
 21
45.7606
 31
0.0
  0
LINE
  8
0
 62
     0
 10
254.981
 20
45.7606
 30
0.0
 11
240.982
 21
45.7606
 31
0.0
  0
LINE
  8
0
 62
     0
 10
240.982
 20
45.7606
 30
0.0
 11
240.982
 21
59.7613
 31
0.0
  0
LINE
  8
0
 62
     0
 10
267.176
 20
59.7613
 30
0.0
 11
281.175
 21
59.7613
 31
0.0
  0
LINE
  8
0
 62
     0
 10
281.175
 20
59.7613
 30
0.0
 11
281.175
 21
45.7606
 31
0.0
  0
LINE
  8
0
 62
     0
 10
281.175
 20
45.7606
 30
0.0
 11
267.176
 21
45.7606
 31
0.0
  0
LINE
  8
0
 62
     0
 10
267.176
 20
45.7606
 30
0.0
 11
267.176
 21
59.7613
 31
0.0
  0
LINE
  8
0
 62
     0
 10
7.61919
 20
78.8113
 30
0.0
 11
21.6201
 21
78.8113
 31
0.0
  0
LINE
  8
0
 62
     0
 10
21.6201
 20
78.8113
 30
0.0
 11
21.6201
 21
64.8106
 31
0.0
  0
LINE
  8
0
 62
     0
 10
21.6201
 20
64.8106
 30
0.0
 11
7.61919
 21
64.8106
 31
0.0
  0
LINE
  8
0
 62
     0
 10
7.61919
 20
64.8106
 30
0.0
 11
7.61919
 21
78.8113
 31
0.0
  0
LINE
  8
0
 62
     0
 10
26.6692
 20
78.8113
 30
0.0
 11
40.67
 21
78.8113
 31
0.0
  0
LINE
  8
0
 62
     0
 10
40.67
 20
78.8113
 30
0.0
 11
40.67
 21
64.8106
 31
0.0
  0
LINE
  8
0
 62
     0
 10
40.67
 20
64.8106
 30
0.0
 11
26.6692
 21
64.8106
 31
0.0
  0
LINE
  8
0
 62
     0
 10
26.6692
 20
64.8106
 30
0.0
 11
26.6692
 21
78.8113
 31
0.0
  0
LINE
  8
0
 62
     0
 10
45.7193
 20
78.8113
 30
0.0
 11
59.72
 21
78.8113
 31
0.0
  0
LINE
  8
0
 62
     0
 10
59.72
 20
78.8113
 30
0.0
 11
59.72
 21
64.8106
 31
0.0
  0
LINE
  8
0
 62
     0
 10
59.72
 20
64.8106
 30
0.0
 11
45.7193
 21
64.8106
 31
0.0
  0
LINE
  8
0
 62
     0
 10
45.7193
 20
64.8106
 30
0.0
 11
45.7193
 21
78.8113
 31
0.0
  0
LINE
  8
0
 62
     0
 10
64.7693
 20
78.8113
 30
0.0
 11
78.77
 21
78.8113
 31
0.0
  0
LINE
  8
0
 62
     0
 10
78.77
 20
78.8113
 30
0.0
 11
78.77
 21
64.8106
 31
0.0
  0
LINE
  8
0
 62
     0
 10
78.77
 20
64.8106
 30
0.0
 11
64.7693
 21
64.8106
 31
0.0
  0
LINE
  8
0
 62
     0
 10
64.7693
 20
64.8106
 30
0.0
 11
64.7693
 21
78.8113
 31
0.0
  0
LINE
  8
0
 62
     0
 10
83.8193
 20
78.8113
 30
0.0
 11
97.82
 21
78.8113
 31
0.0
  0
LINE
  8
0
 62
     0
 10
97.82
 20
78.8113
 30
0.0
 11
97.82
 21
64.8106
 31
0.0
  0
LINE
  8
0
 62
     0
 10
97.82
 20
64.8106
 30
0.0
 11
83.8193
 21
64.8106
 31
0.0
  0
LINE
  8
0
 62
     0
 10
83.8193
 20
64.8106
 30
0.0
 11
83.8193
 21
78.8113
 31
0.0
  0
LINE
  8
0
 62
     0
 10
102.869
 20
78.8113
 30
0.0
 11
116.869
 21
78.8113
 31
0.0
  0
LINE
  8
0
 62
     0
 10
116.869
 20
78.8113
 30
0.0
 11
116.869
 21
64.8106
 31
0.0
  0
LINE
  8
0
 62
     0
 10
116.869
 20
64.8106
 30
0.0
 11
102.869
 21
64.8106
 31
0.0
  0
LINE
  8
0
 62
     0
 10
102.869
 20
64.8106
 30
0.0
 11
102.869
 21
78.8113
 31
0.0
  0
LINE
  8
0
 62
     0
 10
121.919
 20
78.8113
 30
0.0
 11
135.92
 21
78.8113
 31
0.0
  0
LINE
  8
0
 62
     0
 10
135.92
 20
78.8113
 30
0.0
 11
135.92
 21
64.8106
 31
0.0
  0
LINE
  8
0
 62
     0
 10
135.92
 20
64.8106
 30
0.0
 11
121.919
 21
64.8106
 31
0.0
  0
LINE
  8
0
 62
     0
 10
121.919
 20
64.8106
 30
0.0
 11
121.919
 21
78.8113
 31
0.0
  0
LINE
  8
0
 62
     0
 10
140.969
 20
78.8113
 30
0.0
 11
154.97
 21
78.8113
 31
0.0
  0
LINE
  8
0
 62
     0
 10
154.97
 20
78.8113
 30
0.0
 11
154.97
 21
64.8106
 31
0.0
  0
LINE
  8
0
 62
     0
 10
154.97
 20
64.8106
 30
0.0
 11
140.969
 21
64.8106
 31
0.0
  0
LINE
  8
0
 62
     0
 10
140.969
 20
64.8106
 30
0.0
 11
140.969
 21
78.8113
 31
0.0
  0
LINE
  8
0
 62
     0
 10
160.019
 20
78.8113
 30
0.0
 11
174.02
 21
78.8113
 31
0.0
  0
LINE
  8
0
 62
     0
 10
174.02
 20
78.8113
 30
0.0
 11
174.02
 21
64.8106
 31
0.0
  0
LINE
  8
0
 62
     0
 10
174.02
 20
64.8106
 30
0.0
 11
160.019
 21
64.8106
 31
0.0
  0
LINE
  8
0
 62
     0
 10
160.019
 20
64.8106
 30
0.0
 11
160.019
 21
78.8113
 31
0.0
  0
LINE
  8
0
 62
     0
 10
179.069
 20
78.8113
 30
0.0
 11
193.07
 21
78.8113
 31
0.0
  0
LINE
  8
0
 62
     0
 10
193.07
 20
78.8113
 30
0.0
 11
193.07
 21
64.8106
 31
0.0
  0
LINE
  8
0
 62
     0
 10
193.07
 20
64.8106
 30
0.0
 11
179.069
 21
64.8106
 31
0.0
  0
LINE
  8
0
 62
     0
 10
179.069
 20
64.8106
 30
0.0
 11
179.069
 21
78.8113
 31
0.0
  0
LINE
  8
0
 62
     0
 10
198.119
 20
78.8113
 30
0.0
 11
212.12
 21
78.8113
 31
0.0
  0
LINE
  8
0
 62
     0
 10
212.12
 20
78.8113
 30
0.0
 11
212.12
 21
64.8106
 31
0.0
  0
LINE
  8
0
 62
     0
 10
212.12
 20
64.8106
 30
0.0
 11
198.119
 21
64.8106
 31
0.0
  0
LINE
  8
0
 62
     0
 10
198.119
 20
64.8106
 30
0.0
 11
198.119
 21
78.8113
 31
0.0
  0
LINE
  8
0
 62
     0
 10
217.169
 20
78.8113
 30
0.0
 11
231.17
 21
78.8113
 31
0.0
  0
LINE
  8
0
 62
     0
 10
231.17
 20
78.8113
 30
0.0
 11
231.17
 21
64.8106
 31
0.0
  0
LINE
  8
0
 62
     0
 10
231.17
 20
64.8106
 30
0.0
 11
217.169
 21
64.8106
 31
0.0
  0
LINE
  8
0
 62
     0
 10
217.169
 20
64.8106
 30
0.0
 11
217.169
 21
78.8113
 31
0.0
  0
LINE
  8
0
 62
     0
 10
236.219
 20
78.8113
 30
0.0
 11
250.22
 21
78.8113
 31
0.0
  0
LINE
  8
0
 62
     0
 10
250.22
 20
78.8113
 30
0.0
 11
250.22
 21
64.8106
 31
0.0
  0
LINE
  8
0
 62
     0
 10
250.22
 20
64.8106
 30
0.0
 11
236.219
 21
64.8106
 31
0.0
  0
LINE
  8
0
 62
     0
 10
236.219
 20
64.8106
 30
0.0
 11
236.219
 21
78.8113
 31
0.0
  0
LINE
  8
0
 62
     0
 10
255.269
 20
78.8113
 30
0.0
 11
269.27
 21
78.8113
 31
0.0
  0
LINE
  8
0
 62
     0
 10
269.27
 20
78.8113
 30
0.0
 11
269.27
 21
64.8106
 31
0.0
  0
LINE
  8
0
 62
     0
 10
269.27
 20
64.8106
 30
0.0
 11
255.269
 21
64.8106
 31
0.0
  0
LINE
  8
0
 62
     0
 10
255.269
 20
64.8106
 30
0.0
 11
255.269
 21
78.8113
 31
0.0
  0
LINE
  8
0
 62
     0
 10
274.319
 20
78.8113
 30
0.0
 11
288.32
 21
78.8113
 31
0.0
  0
LINE
  8
0
 62
     0
 10
288.32
 20
78.8113
 30
0.0
 11
288.32
 21
64.8106
 31
0.0
  0
LINE
  8
0
 62
     0
 10
288.32
 20
64.8106
 30
0.0
 11
274.319
 21
64.8106
 31
0.0
  0
LINE
  8
0
 62
     0
 10
274.319
 20
64.8106
 30
0.0
 11
274.319
 21
78.8113
 31
0.0
  0
ENDSEC
  0
EOF
